:SAMPLES-PER-SECOND 30
:FULLY-SPECIFIED
:DEGREES
45
root  -23.46022148 39.34133334 28.981778 3.274179935 -2.074080944 -1.59765017
lowerback  6.590169907 2.536750078 -0.6922698617
upperback  1.147879958 3.348520041 0.8078269958
thorax  -2.593810081 1.675150037 0.925984025
lowerneck  -15.98799992 5.358510017 -2.813070059
upperneck  21.77039909 8.572660446 -1.326679945
head  9.456279755 3.60868001 1.093269825
lclavicle  0 -5.34481991e-014 2.981770104e-014
lhumerus  -40.59360123 26.28499985 69.52580261
lradius  0.003583191894 6.643666666e-007 18.1970005
lwrist  -1.645157397e-007 -3.533851896e-007 -11.72259998
lhand  -5.505032044e-031 -15.8135004 33.60620117
lfingers  90 7.125020027 -90
lthumb  93.41605384 18.01962653 79.07819387
rclavicle  0 -5.34481991e-014 2.981770104e-014
rhumerus  -35.95629883 -18.27470016 -73.35870361
rradius  -1.296506525e-006 2.359789448e-007 41.94440079
rwrist  -2.281664457e-008 -8.593936229e-009 13.06779957
rhand  -1.345748685e-031 10.2737999 9.996669769
rfingers  -90 -7.125020027 -90
rthumb  -72.52445805 -22.91766803 -51.04506765
rfemur  -7.489209652 -1.833441138 23.86540413
rtibia  9.670418422e-007 1.119611625e-006 47.35471344
rfoot  2.556521167e-006 -11.33020878 -0.2984626889
rtoes  2.336001174 19.8686595 -96.84438506
lfemur  -20.89513016 -1.289966941 -19.59368324
ltibia  -3.641206786e-005 2.004581745e-007 19.74554825
lfoot  -5.693161143e-007 -4.288486481 -4.211623192
ltoes  -5.298979543 -19.31302686 -105.6655569
46
root  -23.44355546 39.37022292 29.22110971 3.13999033 -2.052848577 -1.410029769
lowerback  6.690400124 2.490350008 -1.135899901
upperback  1.082180023 3.254080057 0.7743740082
thorax  -2.737970114 1.632740021 1.141229987
lowerneck  -16.07519913 5.295149803 -2.987279892
upperneck  21.99419975 8.480150223 -1.057900071
head  9.529720306 3.573839903 1.208699942
lclavicle  0 -5.34481991e-014 2.981770104e-014
lhumerus  -40.24610138 25.66209984 70.19419861
lradius  0.003583191894 6.643666666e-007 18.52969933
lwrist  -1.645157397e-007 -3.533851896e-007 -11.05730057
lhand  -5.505032044e-031 -15.8135004 33.60620117
lfingers  90 7.125020027 -90
lthumb  93.41605384 18.01962653 79.07819387
rclavicle  0 -5.34481991e-014 2.981770104e-014
rhumerus  -36.01549911 -18.20199966 -73.31909943
rradius  -1.296506525e-006 2.359789448e-007 41.96530151
rwrist  -2.281664457e-008 -8.593936229e-009 13.57199955
rhand  -1.345748685e-031 10.2737999 9.996669769
rfingers  -90 -7.125020027 -90
rthumb  -72.52445805 -22.91766803 -51.04506765
rfemur  -8.095348358 -1.850920439 23.51820374
rtibia  9.670418422e-007 1.119611625e-006 48.58981705
rfoot  2.556521167e-006 -11.55940533 -0.2179711163
rtoes  2.336001174 19.8686595 -96.84438506
lfemur  -20.21462059 -1.329888105 -19.84488869
ltibia  -3.641206786e-005 2.004581745e-007 19.58743095
lfoot  -5.693161143e-007 -4.763449669 -4.198291779
ltoes  -5.298979543 -19.31302686 -105.6655569
47
root  -23.42244246 39.38355634 29.42755692 3.094110012 -1.980370283 -1.259930253
lowerback  6.939229965 2.39380002 -1.437319994
upperback  0.8445910215 3.098520041 0.697107017
thorax  -3.129209995 1.561400056 1.227620006
lowerneck  -15.91769981 5.338880062 -3.101739883
upperneck  22.27339935 8.503510475 -0.7492519617
head  9.576310158 3.604520082 1.335770011
lclavicle  0 -5.34481991e-014 2.981770104e-014
lhumerus  -40.19820023 23.47960091 71.65260315
lradius  0.003583191894 6.643666666e-007 19.79260063
lwrist  -1.645157397e-007 -3.533851896e-007 -8.87032032
lhand  -5.505032044e-031 -15.8135004 33.60620117
lfingers  90 7.125020027 -90
lthumb  93.41605384 18.01962653 79.07819387
rclavicle  0 -5.34481991e-014 2.981770104e-014
rhumerus  -36.38069916 -17.91419983 -73.35540009
rradius  -1.296506525e-006 2.359789448e-007 42.10810089
rwrist  -2.281664457e-008 -8.593936229e-009 13.99020004
rhand  -1.345748685e-031 10.2737999 9.996669769
rfingers  -90 -7.125020027 -90
rthumb  -72.52445805 -22.91766803 -51.04506765
rfemur  -8.822787285 -1.907709837 23.21770096
rtibia  9.670418422e-007 1.119611625e-006 49.78471375
rfoot  2.556521167e-006 -11.85910988 0.06288035214
rtoes  2.336001174 19.8686595 -96.84438506
lfemur  -19.72512817 -1.315987349 -20.06638527
ltibia  -3.641206786e-005 2.004581745e-007 19.43174934
lfoot  -5.693161143e-007 -5.113170624 -4.320004463
ltoes  -5.298979543 -19.31302686 -105.6655569
48
root  -23.39488953 39.40222132 29.64577863 2.974649906 -1.694990635 -1.380950093
lowerback  7.083539963 2.235150099 -1.352519989
upperback  0.7121040225 2.891449928 0.6741039753
thorax  -3.334359884 1.459079981 1.16802001
lowerneck  -15.68869972 5.345940113 -2.994920015
upperneck  22.34359932 8.486249924 -0.7756628394
head  9.564640045 3.603270054 1.301360011
lclavicle  0 -5.34481991e-014 2.981770104e-014
lhumerus  -40.04600143 22.09329987 72.54859924
lradius  0.003583191894 6.643666666e-007 20.62209702
lwrist  -1.645157397e-007 -3.533851896e-007 -7.632279873
lhand  -5.505032044e-031 -15.8135004 33.60620117
lfingers  90 7.125020027 -90
lthumb  93.41605384 18.01962653 79.07819387
rclavicle  0 -5.34481991e-014 2.981770104e-014
rhumerus  -36.65069962 -17.69720078 -73.40910339
rradius  -1.296506525e-006 2.359789448e-007 42.15539932
rwrist  -2.281664457e-008 -8.593936229e-009 14.34020042
rhand  -1.345748685e-031 10.2737999 9.996669769
rfingers  -90 -7.125020027 -90
rthumb  -72.52445805 -22.91766803 -51.04506765
rfemur  -9.339737892 -2.169819355 23.20149994
rtibia  9.670418422e-007 1.119611625e-006 50.88779068
rfoot  2.556521167e-006 -12.19579506 0.3580563664
rtoes  2.336001174 19.8686595 -96.84438506
lfemur  -19.18459702 -1.172389984 -20.04450035
ltibia  -3.641206786e-005 2.004581745e-007 19.35719872
lfoot  -5.693161143e-007 -5.518051147 -4.649879932
ltoes  -5.298979543 -19.31302686 -105.6655569
49
root  -23.38111157 39.42911043 29.8777783 2.773579836 -1.473040462 -1.53068006
lowerback  7.081180096 2.112790108 -1.364380002
upperback  0.7393190265 2.729290009 0.7167840004
thorax  -3.302269936 1.378669977 1.235829949
lowerneck  -15.7198 5.228209972 -3.057379961
upperneck  22.55120087 8.345729828 -0.7554678917
head  9.642040253 3.527780056 1.307100058
lclavicle  0 -5.34481991e-014 2.981770104e-014
lhumerus  -39.63550186 21.64389992 73.00160217
lradius  0.003583191894 6.643666666e-007 20.91129875
lwrist  -1.645157397e-007 -3.533851896e-007 -7.425010204
lhand  -5.505032044e-031 -15.8135004 33.60620117
lfingers  90 7.125020027 -90
lthumb  93.41605384 18.01962653 79.07819387
rclavicle  0 -5.34481991e-014 2.981770104e-014
rhumerus  -36.74330139 -17.66460228 -73.37650299
rradius  -1.296506525e-006 2.359789448e-007 42.11740112
rwrist  -2.281664457e-008 -8.593936229e-009 14.62730026
rhand  -1.345748685e-031 10.2737999 9.996669769
rfingers  -90 -7.125020027 -90
rthumb  -72.52445805 -22.91766803 -51.04506765
rfemur  -9.782443047 -2.293390751 23.26540184
rtibia  9.670418422e-007 1.119611625e-006 51.91270447
rfoot  2.556521167e-006 -12.53540134 0.3837448657
rtoes  2.336001174 19.8686595 -96.84438506
lfemur  -18.5839119 -0.9574107528 -19.96838951
ltibia  -3.641206786e-005 2.004581745e-007 19.37722015
lfoot  -5.693161143e-007 -5.978719234 -4.881650925
ltoes  -5.298979543 -19.31302686 -105.6655569
50
root  -23.37400031 39.45511044 30.09266591 2.664380074 -1.325369835 -1.619859934
lowerback  7.122910023 1.990400076 -1.520519972
upperback  0.6370880008 2.555389881 0.7617319822
thorax  -3.434499979 1.296270013 1.383669972
lowerneck  -15.54039955 5.098199844 -3.292140007
upperneck  22.88100052 8.158289909 -0.4528651834
head  9.701860428 3.448309898 1.426599979
lclavicle  0 -5.34481991e-014 2.981770104e-014
lhumerus  -39.48009872 21.08329964 73.46199799
lradius  0.003583191894 6.643666666e-007 21.48340034
lwrist  -1.645157397e-007 -3.533851896e-007 -7.015629768
lhand  -5.505032044e-031 -15.8135004 33.60620117
lfingers  90 7.125020027 -90
lthumb  93.41605384 18.01962653 79.07819387
rclavicle  0 -5.34481991e-014 2.981770104e-014
rhumerus  -37.02830124 -17.52359962 -73.33190155
rradius  -1.296506525e-006 2.359789448e-007 42.23649979
rwrist  -2.281664457e-008 -8.593936229e-009 14.69509983
rhand  -1.345748685e-031 10.2737999 9.996669769
rfingers  -90 -7.125020027 -90
rthumb  -72.52445805 -22.91766803 -51.04506765
rfemur  -10.49140072 -2.323640108 23.29180145
rtibia  9.670418422e-007 1.119611625e-006 52.89680862
rfoot  2.556521167e-006 -12.70710564 0.2735815942
rtoes  2.336001174 19.8686595 -96.84438506
lfemur  -18.14342308 -0.8920762539 -19.9092865
ltibia  -3.641206786e-005 2.004581745e-007 19.48144531
lfoot  -5.693161143e-007 -6.324771404 -5.003384113
ltoes  -5.298979543 -19.31302686 -105.6655569
51
root  -23.36399949 39.46155638 30.29555674 2.536930084 -1.124411583 -1.647740245
lowerback  7.175230026 1.856810093 -1.691020012
upperback  0.5907819867 2.363500118 0.7671660185
thorax  -3.511749983 1.204419971 1.502040029
lowerneck  -15.26469994 5.038149834 -3.261059999
upperneck  22.9904995 8.05809021 -0.449352026
head  9.691679955 3.404900074 1.403789997
lclavicle  0 -5.34481991e-014 2.981770104e-014
lhumerus  -39.1283989 20.31060028 74.14289856
lradius  0.003583191894 6.643666666e-007 22.25060081
lwrist  -1.645157397e-007 -3.533851896e-007 -6.393799782
lhand  -5.505032044e-031 -15.8135004 33.60620117
lfingers  90 7.125020027 -90
lthumb  93.41605384 18.01962653 79.07819387
rclavicle  0 -5.34481991e-014 2.981770104e-014
rhumerus  -37.18280029 -17.47139931 -73.34739685
rradius  -1.296506525e-006 2.359789448e-007 42.35150146
rwrist  -2.281664457e-008 -8.593936229e-009 14.68648148
rhand  -1.345748685e-031 10.2737999 9.996669769
rfingers  -90 -7.125020027 -90
rthumb  -72.52445805 -22.91766803 -51.04506765
rfemur  -11.1733017 -2.399359703 23.2607975
rtibia  9.670418422e-007 1.119611625e-006 53.84539795
rfoot  2.556521167e-006 -12.99049473 0.1977364123
rtoes  2.336001174 19.8686595 -96.84438506
lfemur  -17.71380043 -0.9563348293 -19.91499901
ltibia  -3.641206786e-005 2.004581745e-007 19.56079865
lfoot  -5.693161143e-007 -6.642127514 -5.104619026
ltoes  -5.298979543 -19.31302686 -105.6655569
